<svg width="220" height="220" viewBox="0 0 220 220" fill="none" xmlns="http://www.w3.org/2000/svg">
<path d="M55 0L59.6669 50.3331L110 55L59.6669 59.6669L55 110L50.3331 59.6669L0 55L50.3331 50.3331L55 0Z" fill="#A2DF21"/>
<path d="M55 110L59.6669 160.333L110 165L59.6669 169.667L55 220L50.3331 169.667L0 165L50.3331 160.333L55 110Z" fill="#A2DF21"/>
<path d="M165 0L169.667 50.3331L220 55L169.667 59.6669L165 110L160.333 59.6669L110 55L160.333 50.3331L165 0Z" fill="#A2DF21"/>
<path d="M165 110L169.667 160.333L220 165L169.667 169.667L165 220L160.333 169.667L110 165L160.333 160.333L165 110Z" fill="#A2DF21"/>
</svg>
